<?xml version="1.0" encoding="UTF-8" standalone="no"?><svg xmlns="http://www.w3.org/2000/svg" xmlns:xlink="http://www.w3.org/1999/xlink" contentScriptType="application/ecmascript" contentStyleType="text/css" height="279px" preserveAspectRatio="none" style="width:330px;height:279px;background:#FFFFFF;" version="1.1" viewBox="0 0 330 279" width="330px" zoomAndPan="magnify"><defs><filter height="300%" id="ftl02mh00do95" width="300%" x="-1" y="-1"><feGaussianBlur result="blurOut" stdDeviation="2.0"/><feColorMatrix in="blurOut" result="blurOut2" type="matrix" values="0 0 0 0 0 0 0 0 0 0 0 0 0 0 0 0 0 0 .4 0"/><feOffset dx="4.0" dy="4.0" in="blurOut2" result="blurOut3"/><feBlend in="SourceGraphic" in2="blurOut3" mode="normal"/></filter></defs><g><!--MD5=[e10e86030cfe6bc78ce0e180785f0e08]
entity front-service--><rect fill="#FEFECE" filter="url(#ftl02mh00do95)" height="46.4883" style="stroke:#A80036;stroke-width:1.5;" width="129" x="82.5" y="7"/><rect fill="#FEFECE" height="10" style="stroke:#A80036;stroke-width:1.5;" width="15" x="191.5" y="12"/><rect fill="#FEFECE" height="2" style="stroke:#A80036;stroke-width:1.5;" width="4" x="189.5" y="14"/><rect fill="#FEFECE" height="2" style="stroke:#A80036;stroke-width:1.5;" width="4" x="189.5" y="18"/><text fill="#000000" font-family="sans-serif" font-size="14" lengthAdjust="spacing" textLength="89" x="97.5" y="40.5352">front-service</text><!--MD5=[22d23dc7263b205fa3f3b88fe9ab5543]
entity fizz-service--><rect fill="#FEFECE" filter="url(#ftl02mh00do95)" height="46.4883" style="stroke:#A80036;stroke-width:1.5;" width="120" x="7" y="219"/><rect fill="#FEFECE" height="10" style="stroke:#A80036;stroke-width:1.5;" width="15" x="107" y="224"/><rect fill="#FEFECE" height="2" style="stroke:#A80036;stroke-width:1.5;" width="4" x="105" y="226"/><rect fill="#FEFECE" height="2" style="stroke:#A80036;stroke-width:1.5;" width="4" x="105" y="230"/><text fill="#000000" font-family="sans-serif" font-size="14" lengthAdjust="spacing" textLength="80" x="22" y="252.5352">fizz-service</text><!--MD5=[0c8d9721c379bf751c9de1a8e4a0396b]
entity buzz-service--><rect fill="#FEFECE" filter="url(#ftl02mh00do95)" height="46.4883" style="stroke:#A80036;stroke-width:1.5;" width="129" x="187.5" y="219"/><rect fill="#FEFECE" height="10" style="stroke:#A80036;stroke-width:1.5;" width="15" x="296.5" y="224"/><rect fill="#FEFECE" height="2" style="stroke:#A80036;stroke-width:1.5;" width="4" x="294.5" y="226"/><rect fill="#FEFECE" height="2" style="stroke:#A80036;stroke-width:1.5;" width="4" x="294.5" y="230"/><text fill="#000000" font-family="sans-serif" font-size="14" lengthAdjust="spacing" textLength="89" x="202.5" y="252.5352">buzz-service</text><!--MD5=[bc9571447634819897230a52930eff72]
entity fizzbuzz-service--><rect fill="#FEFECE" filter="url(#ftl02mh00do95)" height="46.4883" style="stroke:#A80036;stroke-width:1.5;" width="154" x="70" y="113"/><rect fill="#FEFECE" height="10" style="stroke:#A80036;stroke-width:1.5;" width="15" x="204" y="118"/><rect fill="#FEFECE" height="2" style="stroke:#A80036;stroke-width:1.5;" width="4" x="202" y="120"/><rect fill="#FEFECE" height="2" style="stroke:#A80036;stroke-width:1.5;" width="4" x="202" y="124"/><text fill="#000000" font-family="sans-serif" font-size="14" lengthAdjust="spacing" textLength="114" x="85" y="146.5352">fizzbuzz-service</text><!--MD5=[3d6ee27a15299c3eea8ad75e283eae46]
link front-service to fizz-service--><path d="M107.72,53.32 C86.99,67.46 63.52,87.84 52,113 C37.18,145.37 46.58,186.94 55.81,213.78 " fill="none" id="front-service-to-fizz-service" style="stroke:#A80036;stroke-width:1.0;"/><polygon fill="#A80036" points="57.53,218.61,58.2926,208.7907,55.8592,213.8974,50.7525,211.464,57.53,218.61" style="stroke:#A80036;stroke-width:1.0;"/><!--MD5=[ccaaa586bb3e9a9cd66b42d94385f318]
link front-service to buzz-service--><path d="M184.58,53 C205.29,67.3 229.31,87.92 242,113 C258.04,144.7 257.98,186.54 255.66,213.61 " fill="none" id="front-service-to-buzz-service" style="stroke:#A80036;stroke-width:1.0;"/><polygon fill="#A80036" points="255.16,218.82,259.9895,210.2365,255.6307,213.8422,252.025,209.4834,255.16,218.82" style="stroke:#A80036;stroke-width:1.0;"/><!--MD5=[1d9b7f071e39f58a448c3ed43daa2581]
link front-service to fizzbuzz-service--><path d="M147,53.06 C147,69.05 147,90.78 147,107.84 " fill="none" id="front-service-to-fizzbuzz-service" style="stroke:#A80036;stroke-width:1.0;"/><polygon fill="#A80036" points="147,112.98,151,103.98,147,107.98,143,103.98,147,112.98" style="stroke:#A80036;stroke-width:1.0;"/><!--MD5=[c6f7c81ed06e4f61341369bb28944737]
link fizzbuzz-service to fizz-service--><path d="M130.03,159.06 C117.52,175.33 100.44,197.53 87.22,214.72 " fill="none" id="fizzbuzz-service-to-fizz-service" style="stroke:#A80036;stroke-width:1.0;"/><polygon fill="#A80036" points="83.94,218.98,92.5889,214.2687,86.981,215.011,86.2386,209.4031,83.94,218.98" style="stroke:#A80036;stroke-width:1.0;"/><!--MD5=[a8554fbc1557d6d685295ae7c74276e2]
link fizzbuzz-service to buzz-service--><path d="M169.27,159.06 C185.83,175.46 208.49,197.91 225.91,215.16 " fill="none" id="fizzbuzz-service-to-buzz-service" style="stroke:#A80036;stroke-width:1.0;"/><polygon fill="#A80036" points="229.76,218.98,226.1688,209.8092,226.2031,215.466,220.5464,215.5002,229.76,218.98" style="stroke:#A80036;stroke-width:1.0;"/><!--MD5=[32974d29dc1822279f3e5fda6bb0aac4]
@startuml service-diagram
[front-service] - -> [fizz-service]
[front-service] - -> [buzz-service]
[front-service] - -> [fizzbuzz-service]
[fizzbuzz-service] - -> [fizz-service]
[fizzbuzz-service] - -> [buzz-service]
@enduml

PlantUML version 1.2021.7(Sun May 23 21:40:07 JST 2021)
(GPL source distribution)
Java Runtime: OpenJDK Runtime Environment
JVM: OpenJDK 64-Bit Server VM
Default Encoding: UTF-8
Language: ja
Country: JP
--></g></svg>