<?xml version="1.0" encoding="UTF-8" standalone="no"?><svg xmlns="http://www.w3.org/2000/svg" xmlns:xlink="http://www.w3.org/1999/xlink" contentScriptType="application/ecmascript" contentStyleType="text/css" height="293px" preserveAspectRatio="none" style="width:457px;height:293px;background:#FFFFFF;" version="1.1" viewBox="0 0 457 293" width="457px" zoomAndPan="magnify"><defs><filter height="300%" id="f1pz47kzjfovhz" width="300%" x="-1" y="-1"><feGaussianBlur result="blurOut" stdDeviation="2.0"/><feColorMatrix in="blurOut" result="blurOut2" type="matrix" values="0 0 0 0 0 0 0 0 0 0 0 0 0 0 0 0 0 0 .4 0"/><feOffset dx="4.0" dy="4.0" in="blurOut2" result="blurOut3"/><feBlend in="SourceGraphic" in2="blurOut3" mode="normal"/></filter></defs><g><!--MD5=[e9aab4d238e3637b8fa7cd24e1ea37f0]
cluster service2--><rect fill="#FFFFFF" filter="url(#f1pz47kzjfovhz)" height="97" style="stroke:#000000;stroke-width:1.5;" width="438" x="7" y="184"/><path d="M76,184 L76,193.4883 L66,203.4883 L7,203.4883 " fill="none" style="stroke:#000000;stroke-width:1.5;"/><text fill="#000000" font-family="sans-serif" font-size="14" font-weight="bold" lengthAdjust="spacing" textLength="59" x="10" y="198.5352">service2</text><!--MD5=[4a9a41dab419f6151db246cba9c9bc2c]
entity service2_1--><rect fill="#FEFECE" filter="url(#f1pz47kzjfovhz)" height="46.4883" style="stroke:#A80036;stroke-width:1.5;" width="112" x="23" y="219"/><rect fill="#FEFECE" height="10" style="stroke:#A80036;stroke-width:1.5;" width="15" x="115" y="224"/><rect fill="#FEFECE" height="2" style="stroke:#A80036;stroke-width:1.5;" width="4" x="113" y="226"/><rect fill="#FEFECE" height="2" style="stroke:#A80036;stroke-width:1.5;" width="4" x="113" y="230"/><text fill="#000000" font-family="sans-serif" font-size="14" lengthAdjust="spacing" textLength="72" x="38" y="252.5352">service2_1</text><!--MD5=[d74d73ef7d7c0c5a1eb6a825caf48722]
entity service2_2--><rect fill="#FEFECE" filter="url(#f1pz47kzjfovhz)" height="46.4883" style="stroke:#A80036;stroke-width:1.5;" width="112" x="170" y="219"/><rect fill="#FEFECE" height="10" style="stroke:#A80036;stroke-width:1.5;" width="15" x="262" y="224"/><rect fill="#FEFECE" height="2" style="stroke:#A80036;stroke-width:1.5;" width="4" x="260" y="226"/><rect fill="#FEFECE" height="2" style="stroke:#A80036;stroke-width:1.5;" width="4" x="260" y="230"/><text fill="#000000" font-family="sans-serif" font-size="14" lengthAdjust="spacing" textLength="72" x="185" y="252.5352">service2_2</text><!--MD5=[fb24dbe930a3f8853d701dd8efdcf241]
entity service2_3--><rect fill="#FEFECE" filter="url(#f1pz47kzjfovhz)" height="46.4883" style="stroke:#A80036;stroke-width:1.5;" width="112" x="317" y="219"/><rect fill="#FEFECE" height="10" style="stroke:#A80036;stroke-width:1.5;" width="15" x="409" y="224"/><rect fill="#FEFECE" height="2" style="stroke:#A80036;stroke-width:1.5;" width="4" x="407" y="226"/><rect fill="#FEFECE" height="2" style="stroke:#A80036;stroke-width:1.5;" width="4" x="407" y="230"/><text fill="#000000" font-family="sans-serif" font-size="14" lengthAdjust="spacing" textLength="72" x="332" y="252.5352">service2_3</text><!--MD5=[7f301ae1152adc154a88ac736fb5353e]
entity Consul--><rect fill="#FEFECE" filter="url(#f1pz47kzjfovhz)" height="46.4883" style="stroke:#A80036;stroke-width:1.5;" width="88" x="201" y="7"/><rect fill="#FEFECE" height="10" style="stroke:#A80036;stroke-width:1.5;" width="15" x="269" y="12"/><rect fill="#FEFECE" height="2" style="stroke:#A80036;stroke-width:1.5;" width="4" x="267" y="14"/><rect fill="#FEFECE" height="2" style="stroke:#A80036;stroke-width:1.5;" width="4" x="267" y="18"/><text fill="#000000" font-family="sans-serif" font-size="14" lengthAdjust="spacing" textLength="48" x="216" y="40.5352">Consul</text><!--MD5=[af2f78c66876ca225ec11b6ba71e68b0]
entity service1--><rect fill="#FEFECE" filter="url(#f1pz47kzjfovhz)" height="46.4883" style="stroke:#A80036;stroke-width:1.5;" width="96" x="147" y="113"/><rect fill="#FEFECE" height="10" style="stroke:#A80036;stroke-width:1.5;" width="15" x="223" y="118"/><rect fill="#FEFECE" height="2" style="stroke:#A80036;stroke-width:1.5;" width="4" x="221" y="120"/><rect fill="#FEFECE" height="2" style="stroke:#A80036;stroke-width:1.5;" width="4" x="221" y="124"/><text fill="#000000" font-family="sans-serif" font-size="14" lengthAdjust="spacing" textLength="56" x="162" y="146.5352">service1</text><!--MD5=[4d97c5c9b78c24139b8db98dfb39b6f7]
reverse link Consul to service1--><path d="M232.14,57.75 C223.9,74.89 213.34,96.85 205.59,112.98 " fill="none" id="Consul-backto-service1" style="stroke:#A80036;stroke-width:1.0;stroke-dasharray:7.0,7.0;"/><polygon fill="#A80036" points="234.4,53.06,226.8941,59.4366,232.2326,57.5658,234.1034,62.9044,234.4,53.06" style="stroke:#A80036;stroke-width:1.0;"/><!--MD5=[1959c72fa0bc947e797f31808cd6bb85]
reverse link Consul to service2_1--><path d="M197.84,55.6 C174.51,69.75 147.46,89.41 129,113 C103.86,145.13 90,191.45 83.56,218.66 " fill="none" id="Consul-backto-service2_1" style="stroke:#A80036;stroke-width:1.0;stroke-dasharray:7.0,7.0;"/><polygon fill="#A80036" points="202.15,53.02,192.3728,54.2061,197.8588,55.5862,196.4787,61.0721,202.15,53.02" style="stroke:#A80036;stroke-width:1.0;"/><!--MD5=[df4449a90159e148b9f83b9a08d63596]
reverse link Consul to service2_2--><path d="M253.13,58.38 C259.7,84.44 266.84,124.64 260,159 C255.79,180.16 246.01,202.7 238.02,218.78 " fill="none" id="Consul-backto-service2_2" style="stroke:#A80036;stroke-width:1.0;stroke-dasharray:7.0,7.0;"/><polygon fill="#A80036" points="251.82,53.37,250.2097,63.0863,253.0763,58.2096,257.953,61.0762,251.82,53.37" style="stroke:#A80036;stroke-width:1.0;"/><!--MD5=[252ed477f5b61bcd687b6b09de80d730]
reverse link Consul to service2_3--><path d="M261.15,57.49 C286.66,99.34 335.8,179.98 359.53,218.9 " fill="none" id="Consul-backto-service2_3" style="stroke:#A80036;stroke-width:1.0;stroke-dasharray:7.0,7.0;"/><polygon fill="#A80036" points="258.46,53.08,259.7227,62.8476,261.0597,57.351,266.5563,58.688,258.46,53.08" style="stroke:#A80036;stroke-width:1.0;"/><!--MD5=[5f06c51eb221f8b83022978602c2310b]
link service1 to service2_1--><path d="M170.4,159.06 C151.94,175.6 126.65,198.28 107.34,215.59 " fill="none" id="service1-to-service2_1" style="stroke:#A80036;stroke-width:1.0;"/><polygon fill="#A80036" points="103.57,218.98,112.9355,215.9325,107.2865,215.6352,107.5838,209.9861,103.57,218.98" style="stroke:#A80036;stroke-width:1.0;"/><!--MD5=[2b759bbd94f0b6cb9675277b8e0e34b9]
link service1 to service2_2--><path d="M201.57,159.06 C206.34,175.05 212.82,196.78 217.9,213.84 " fill="none" id="service1-to-service2_2" style="stroke:#A80036;stroke-width:1.0;"/><polygon fill="#A80036" points="219.44,218.98,220.6986,209.2119,218.0098,214.1889,213.0328,211.5002,219.44,218.98" style="stroke:#A80036;stroke-width:1.0;"/><!--MD5=[e37f8ec4e0e644cd9755cf968bf3f816]
link service1 to service2_3--><path d="M243.26,151.02 C261.41,157.32 281.8,165.69 299,176 C316.97,186.76 334.68,202.11 348.27,215.18 " fill="none" id="service1-to-service2_3" style="stroke:#A80036;stroke-width:1.0;"/><polygon fill="#A80036" points="351.99,218.81,348.3248,209.6685,348.4048,215.3248,342.7485,215.4048,351.99,218.81" style="stroke:#A80036;stroke-width:1.0;"/><!--MD5=[ae5bd9e115755b5beefdd4875e65afd5]
@startuml service-diagram
[Consul]
[service1]
frame service2 {
    [service2_1]
    [service2_2]
    [service2_3]
}

[Consul] <.. [service1]
[Consul] <.. [service2_1]
[Consul] <.. [service2_2]
[Consul] <.. [service2_3]

[service1] - -> [service2_1]
[service1] - -> [service2_2]
[service1] - -> [service2_3]
@enduml

PlantUML version 1.2021.7(Sun May 23 21:40:07 JST 2021)
(GPL source distribution)
Java Runtime: OpenJDK Runtime Environment
JVM: OpenJDK 64-Bit Server VM
Default Encoding: UTF-8
Language: ja
Country: JP
--></g></svg>